<svg width="93" height="92" viewBox="0 0 93 92" fill="none" xmlns="http://www.w3.org/2000/svg">
<mask id="mask0_14556_487" style="mask-type:alpha" maskUnits="userSpaceOnUse" x="0" y="0" width="93" height="92">
<rect x="0.833374" y="0.333336" width="91.6667" height="91.6666" rx="30" fill="#C4C4C4"/>
</mask>
<g mask="url(#mask0_14556_487)">
<rect width="154" height="154" transform="translate(-30.3333 -30.8333)" fill="white"/>
<mask id="mask1_14556_487" style="mask-type:luminance" maskUnits="userSpaceOnUse" x="8" y="33" width="77" height="40">
<path d="M46.7154 45.9333C43.9137 38.5589 36.7774 33.3121 28.4251 33.3121C17.6304 33.3121 8.8667 42.0758 8.8667 52.8705C8.8667 63.6649 17.6304 72.4289 28.4251 72.4289C37.5446 72.4289 45.215 66.1736 47.3756 57.7233L56.0562 66.2411C56.5672 66.5623 57.0377 66.5458 57.4707 66.222L66.0227 57.8584L72.1559 63.9263C72.8449 64.434 73.5073 64.3539 74.1501 63.8436L84.1776 53.775C84.5677 53.2302 84.5438 52.6879 84.2213 52.1567L77.9947 46.2028C77.7853 46.0564 77.5658 45.9563 77.3299 45.9333L46.7154 45.9333ZM16.5064 52.9335C16.5064 55.8174 18.8477 58.1586 21.7316 58.1586C24.6154 58.1586 26.9567 55.8174 26.9567 52.9335C26.9567 50.0497 24.6154 47.7084 21.7316 47.7084C18.8477 47.7084 16.5064 50.0497 16.5064 52.9335Z" fill="white"/>
</mask>
<g mask="url(#mask1_14556_487)">
<path d="M84.4665 72.4292L84.4665 33.312L8.86688 33.312L8.86688 72.4292L84.4665 72.4292ZM21.4665 53.1665C21.4666 50.0738 23.9743 47.5669 27.0671 47.5669C30.1596 47.5671 32.6666 50.0739 32.6667 53.1665C32.6667 56.2592 30.1597 58.7659 27.0671 58.7661C23.9743 58.7661 21.4665 56.2593 21.4665 53.1665Z" fill="black"/>
</g>
<mask id="mask2_14556_487" style="mask-type:luminance" maskUnits="userSpaceOnUse" x="8" y="19" width="76" height="24">
<path d="M80.2715 42.3396C80.5807 42.5879 81.078 42.4386 81.0501 42.3451L83.5303 39.8546C83.9166 39.3145 83.8929 38.7765 83.5735 38.2498L77.4002 32.3469C77.1922 32.202 76.9747 32.1027 76.7408 32.08L46.3883 32.08C43.6105 24.7686 36.5349 19.5667 28.254 19.5667C17.6791 19.5667 9.07015 28.0497 8.8667 38.5766C13.2122 32.6326 20.2368 28.769 28.157 28.769C37.1629 28.769 45.0109 33.7649 49.079 41.134L77.2227 41.134L77.2227 41.1362C77.2666 41.1346 77.3108 41.134 77.355 41.134C78.4927 41.134 79.4488 41.6783 80.2715 42.3396Z" fill="white"/>
</mask>
<g mask="url(#mask2_14556_487)">
<path fill-rule="evenodd" clip-rule="evenodd" d="M83.7866 42.4758L8.83307 42.4758L8.83307 19.5667L83.7866 19.5667L83.7866 42.4758Z" fill="#C4C4C4"/>
</g>
</g>
</svg>
